<?xml version="1.0" encoding="UTF-8" standalone="no"?>
<!DOCTYPE svg PUBLIC "-//W3C//DTD SVG 1.1//EN"
 "http://www.w3.org/Graphics/SVG/1.1/DTD/svg11.dtd">
<!-- Generated by graphviz version 2.38.0 (20140413.2041)
 -->
<!-- Title: G Pages: 1 -->
<svg width="644pt" height="124pt"
 viewBox="0.00 0.00 643.91 123.98" xmlns="http://www.w3.org/2000/svg" xmlns:xlink="http://www.w3.org/1999/xlink">
<g id="graph0" class="graph" transform="scale(1 1) rotate(0) translate(7.992 115.992)">
<title>G</title>
<polygon fill="#000000" stroke="none" points="-7.992,7.992 -7.992,-115.992 635.922,-115.992 635.922,7.992 -7.992,7.992"/>
<!-- index.js -->
<g id="node1" class="node"><title>index.js</title>
<ellipse fill="none" stroke="#c6c5fe" cx="448.734" cy="-90" rx="42.4939" ry="18"/>
<text text-anchor="middle" x="448.734" y="-86.3" font-family="Arial" font-size="14.00" fill="#c6c5fe">index.js</text>
</g>
<!-- ../node_modules/fun&#45;function/src/index.js -->
<g id="node2" class="node"><title>../node_modules/fun&#45;function/src/index.js</title>
<ellipse fill="none" stroke="#cfffac" cx="178.734" cy="-18" rx="178.969" ry="18"/>
<text text-anchor="middle" x="178.734" y="-14.3" font-family="Arial" font-size="14.00" fill="#cfffac">../node_modules/fun&#45;function/src/index.js</text>
</g>
<!-- index.js&#45;&gt;../node_modules/fun&#45;function/src/index.js -->
<g id="edge1" class="edge"><title>index.js&#45;&gt;../node_modules/fun&#45;function/src/index.js</title>
<path fill="none" stroke="#757575" d="M413.713,-79.9205C372.494,-69.234 302.983,-51.2127 250.229,-37.5356"/>
<polygon fill="#757575" stroke="#757575" points="250.808,-34.0702 240.25,-34.9485 249.051,-40.8462 250.808,-34.0702"/>
</g>
<!-- lib/fun&#45;unfold.js -->
<g id="node3" class="node"><title>lib/fun&#45;unfold.js</title>
<ellipse fill="none" stroke="#cfffac" cx="448.734" cy="-18" rx="72.5877" ry="18"/>
<text text-anchor="middle" x="448.734" y="-14.3" font-family="Arial" font-size="14.00" fill="#cfffac">lib/fun&#45;unfold.js</text>
</g>
<!-- index.js&#45;&gt;lib/fun&#45;unfold.js -->
<g id="edge2" class="edge"><title>index.js&#45;&gt;lib/fun&#45;unfold.js</title>
<path fill="none" stroke="#757575" d="M448.734,-71.6966C448.734,-63.9827 448.734,-54.7125 448.734,-46.1124"/>
<polygon fill="#757575" stroke="#757575" points="452.234,-46.1043 448.734,-36.1043 445.234,-46.1044 452.234,-46.1043"/>
</g>
<!-- lib/not.js -->
<g id="node4" class="node"><title>lib/not.js</title>
<ellipse fill="none" stroke="#cfffac" cx="583.734" cy="-18" rx="44.393" ry="18"/>
<text text-anchor="middle" x="583.734" y="-14.3" font-family="Arial" font-size="14.00" fill="#cfffac">lib/not.js</text>
</g>
<!-- index.js&#45;&gt;lib/not.js -->
<g id="edge3" class="edge"><title>index.js&#45;&gt;lib/not.js</title>
<path fill="none" stroke="#757575" d="M474.444,-75.6688C495.288,-64.8609 524.897,-49.5081 548.04,-37.5083"/>
<polygon fill="#757575" stroke="#757575" points="549.931,-40.4703 557.197,-32.7599 546.708,-34.256 549.931,-40.4703"/>
</g>
</g>
</svg>
