<?xml version="1.0" encoding="UTF-8" standalone="no"?>
<!DOCTYPE svg PUBLIC "-//W3C//DTD SVG 1.1//EN"
 "http://www.w3.org/Graphics/SVG/1.1/DTD/svg11.dtd">
<!-- Generated by graphviz version 2.38.0 (20140413.2041)
 -->
<!-- Title: G Pages: 1 -->
<svg width="1744pt" height="124pt"
 viewBox="0.00 0.00 1744.41 123.98" xmlns="http://www.w3.org/2000/svg" xmlns:xlink="http://www.w3.org/1999/xlink">
<g id="graph0" class="graph" transform="scale(1 1) rotate(0) translate(7.992 115.992)">
<title>G</title>
<polygon fill="#000000" stroke="none" points="-7.992,7.992 -7.992,-115.992 1736.41,-115.992 1736.41,7.992 -7.992,7.992"/>
<!-- index -->
<g id="node1" class="node"><title>index</title>
<ellipse fill="none" stroke="#c6c5fe" cx="866.286" cy="-90" rx="32.4942" ry="18"/>
<text text-anchor="middle" x="866.286" y="-86.3" font-family="Arial" font-size="14.00" fill="#c6c5fe">index</text>
</g>
<!-- ../node_modules/fun&#45;curry/src/index -->
<g id="node2" class="node"><title>../node_modules/fun&#45;curry/src/index</title>
<ellipse fill="none" stroke="#cfffac" cx="157.286" cy="-18" rx="157.072" ry="18"/>
<text text-anchor="middle" x="157.286" y="-14.3" font-family="Arial" font-size="14.00" fill="#cfffac">../node_modules/fun&#45;curry/src/index</text>
</g>
<!-- index&#45;&gt;../node_modules/fun&#45;curry/src/index -->
<g id="edge1" class="edge"><title>index&#45;&gt;../node_modules/fun&#45;curry/src/index</title>
<path fill="none" stroke="#757575" d="M834.455,-85.9464C750.731,-77.9033 517.438,-55.4166 323.286,-36 309.233,-34.5946 294.513,-33.108 279.889,-31.6221"/>
<polygon fill="#757575" stroke="#757575" points="280.092,-28.1248 269.789,-30.5945 279.383,-35.0888 280.092,-28.1248"/>
</g>
<!-- ../node_modules/fun&#45;function/src/index -->
<g id="node3" class="node"><title>../node_modules/fun&#45;function/src/index</title>
<ellipse fill="none" stroke="#cfffac" cx="502.286" cy="-18" rx="169.77" ry="18"/>
<text text-anchor="middle" x="502.286" y="-14.3" font-family="Arial" font-size="14.00" fill="#cfffac">../node_modules/fun&#45;function/src/index</text>
</g>
<!-- index&#45;&gt;../node_modules/fun&#45;function/src/index -->
<g id="edge2" class="edge"><title>index&#45;&gt;../node_modules/fun&#45;function/src/index</title>
<path fill="none" stroke="#757575" d="M835.878,-83.1522C782.46,-72.8796 669.901,-51.2337 590.341,-35.9336"/>
<polygon fill="#757575" stroke="#757575" points="590.802,-32.4582 580.321,-34.0067 589.48,-39.3323 590.802,-32.4582"/>
</g>
<!-- ../node_modules/fun&#45;predicate/src/index -->
<g id="node4" class="node"><title>../node_modules/fun&#45;predicate/src/index</title>
<ellipse fill="none" stroke="#cfffac" cx="866.286" cy="-18" rx="176.269" ry="18"/>
<text text-anchor="middle" x="866.286" y="-14.3" font-family="Arial" font-size="14.00" fill="#cfffac">../node_modules/fun&#45;predicate/src/index</text>
</g>
<!-- index&#45;&gt;../node_modules/fun&#45;predicate/src/index -->
<g id="edge3" class="edge"><title>index&#45;&gt;../node_modules/fun&#45;predicate/src/index</title>
<path fill="none" stroke="#757575" d="M866.286,-71.6966C866.286,-63.9827 866.286,-54.7125 866.286,-46.1124"/>
<polygon fill="#757575" stroke="#757575" points="869.786,-46.1043 866.286,-36.1043 862.786,-46.1044 869.786,-46.1043"/>
</g>
<!-- ../node_modules/fun&#45;scalar/src/index -->
<g id="node5" class="node"><title>../node_modules/fun&#45;scalar/src/index</title>
<ellipse fill="none" stroke="#cfffac" cx="1222.29" cy="-18" rx="161.671" ry="18"/>
<text text-anchor="middle" x="1222.29" y="-14.3" font-family="Arial" font-size="14.00" fill="#cfffac">../node_modules/fun&#45;scalar/src/index</text>
</g>
<!-- index&#45;&gt;../node_modules/fun&#45;scalar/src/index -->
<g id="edge4" class="edge"><title>index&#45;&gt;../node_modules/fun&#45;scalar/src/index</title>
<path fill="none" stroke="#757575" d="M896.332,-83.0922C948.711,-72.7928 1058.56,-51.193 1136.23,-35.9221"/>
<polygon fill="#757575" stroke="#757575" points="1137.35,-39.2687 1146.48,-33.905 1136,-32.4002 1137.35,-39.2687"/>
</g>
<!-- ../node_modules/fun&#45;unfold/src/index -->
<g id="node6" class="node"><title>../node_modules/fun&#45;unfold/src/index</title>
<ellipse fill="none" stroke="#cfffac" cx="1565.29" cy="-18" rx="163.271" ry="18"/>
<text text-anchor="middle" x="1565.29" y="-14.3" font-family="Arial" font-size="14.00" fill="#cfffac">../node_modules/fun&#45;unfold/src/index</text>
</g>
<!-- index&#45;&gt;../node_modules/fun&#45;unfold/src/index -->
<g id="edge5" class="edge"><title>index&#45;&gt;../node_modules/fun&#45;unfold/src/index</title>
<path fill="none" stroke="#757575" d="M898.137,-85.8103C992.248,-76.3857 1272.82,-48.2885 1438.62,-31.6847"/>
<polygon fill="#757575" stroke="#757575" points="1439.28,-35.1363 1448.88,-30.6572 1438.58,-28.1711 1439.28,-35.1363"/>
</g>
</g>
</svg>
