<?xml version="1.0" encoding="UTF-8" standalone="no"?>
<!DOCTYPE svg PUBLIC "-//W3C//DTD SVG 1.1//EN"
 "http://www.w3.org/Graphics/SVG/1.1/DTD/svg11.dtd">
<!-- Generated by graphviz version 2.38.0 (20140413.2041)
 -->
<!-- Title: G Pages: 1 -->
<svg width="589pt" height="124pt"
 viewBox="0.00 0.00 588.72 123.98" xmlns="http://www.w3.org/2000/svg" xmlns:xlink="http://www.w3.org/1999/xlink">
<g id="graph0" class="graph" transform="scale(1 1) rotate(0) translate(7.992 115.992)">
<title>G</title>
<polygon fill="#000000" stroke="none" points="-7.992,7.992 -7.992,-115.992 580.724,-115.992 580.724,7.992 -7.992,7.992"/>
<!-- index -->
<g id="node1" class="node"><title>index</title>
<ellipse fill="none" stroke="#c6c5fe" cx="420.635" cy="-90" rx="32.4942" ry="18"/>
<text text-anchor="middle" x="420.635" y="-86.3" font-family="Arial" font-size="14.00" fill="#c6c5fe">index</text>
</g>
<!-- ../node_modules/fun&#45;function/src/index -->
<g id="node2" class="node"><title>../node_modules/fun&#45;function/src/index</title>
<ellipse fill="none" stroke="#cfffac" cx="169.635" cy="-18" rx="169.77" ry="18"/>
<text text-anchor="middle" x="169.635" y="-14.3" font-family="Arial" font-size="14.00" fill="#cfffac">../node_modules/fun&#45;function/src/index</text>
</g>
<!-- index&#45;&gt;../node_modules/fun&#45;function/src/index -->
<g id="edge1" class="edge"><title>index&#45;&gt;../node_modules/fun&#45;function/src/index</title>
<path fill="none" stroke="#757575" d="M392.33,-81.1062C354.949,-70.6812 287.926,-51.9895 237.142,-37.8268"/>
<polygon fill="#757575" stroke="#757575" points="237.788,-34.3734 227.216,-35.0584 235.908,-41.1161 237.788,-34.3734"/>
</g>
<!-- lib/fun&#45;unfold -->
<g id="node3" class="node"><title>lib/fun&#45;unfold</title>
<ellipse fill="none" stroke="#cfffac" cx="420.635" cy="-18" rx="63.8893" ry="18"/>
<text text-anchor="middle" x="420.635" y="-14.3" font-family="Arial" font-size="14.00" fill="#cfffac">lib/fun&#45;unfold</text>
</g>
<!-- index&#45;&gt;lib/fun&#45;unfold -->
<g id="edge2" class="edge"><title>index&#45;&gt;lib/fun&#45;unfold</title>
<path fill="none" stroke="#757575" d="M420.635,-71.6966C420.635,-63.9827 420.635,-54.7125 420.635,-46.1124"/>
<polygon fill="#757575" stroke="#757575" points="424.135,-46.1043 420.635,-36.1043 417.135,-46.1044 424.135,-46.1043"/>
</g>
<!-- lib/not -->
<g id="node4" class="node"><title>lib/not</title>
<ellipse fill="none" stroke="#cfffac" cx="537.635" cy="-18" rx="35.194" ry="18"/>
<text text-anchor="middle" x="537.635" y="-14.3" font-family="Arial" font-size="14.00" fill="#cfffac">lib/not</text>
</g>
<!-- index&#45;&gt;lib/not -->
<g id="edge3" class="edge"><title>index&#45;&gt;lib/not</title>
<path fill="none" stroke="#757575" d="M441.823,-76.3235C459.95,-65.4785 486.279,-49.7256 506.752,-37.4768"/>
<polygon fill="#757575" stroke="#757575" points="508.627,-40.4341 515.411,-32.2964 505.033,-34.4271 508.627,-40.4341"/>
</g>
</g>
</svg>
