<?xml version="1.0" encoding="UTF-8" standalone="no"?>
<!DOCTYPE svg PUBLIC "-//W3C//DTD SVG 1.1//EN"
 "http://www.w3.org/Graphics/SVG/1.1/DTD/svg11.dtd">
<!-- Generated by graphviz version 2.38.0 (20140413.2041)
 -->
<!-- Title: G Pages: 1 -->
<svg width="1671pt" height="124pt"
 viewBox="0.00 0.00 1671.46 123.98" xmlns="http://www.w3.org/2000/svg" xmlns:xlink="http://www.w3.org/1999/xlink">
<g id="graph0" class="graph" transform="scale(1 1) rotate(0) translate(7.992 115.992)">
<title>G</title>
<polygon fill="#000000" stroke="none" points="-7.992,7.992 -7.992,-115.992 1663.46,-115.992 1663.46,7.992 -7.992,7.992"/>
<!-- src/index -->
<g id="node1" class="node"><title>src/index</title>
<ellipse fill="none" stroke="#c6c5fe" cx="830.137" cy="-90" rx="48.1917" ry="18"/>
<text text-anchor="middle" x="830.137" y="-86.3" font-family="Arial" font-size="14.00" fill="#c6c5fe">src/index</text>
</g>
<!-- node_modules/fun&#45;curry/src/index -->
<g id="node2" class="node"><title>node_modules/fun&#45;curry/src/index</title>
<ellipse fill="none" stroke="#cfffac" cx="150.137" cy="-18" rx="150.273" ry="18"/>
<text text-anchor="middle" x="150.137" y="-14.3" font-family="Arial" font-size="14.00" fill="#cfffac">node_modules/fun&#45;curry/src/index</text>
</g>
<!-- src/index&#45;&gt;node_modules/fun&#45;curry/src/index -->
<g id="edge1" class="edge"><title>src/index&#45;&gt;node_modules/fun&#45;curry/src/index</title>
<path fill="none" stroke="#757575" d="M784.22,-84.3867C693.576,-75.2648 485.237,-54.2255 310.137,-36 296.61,-34.5921 282.442,-33.1049 268.366,-31.6194"/>
<polygon fill="#757575" stroke="#757575" points="268.455,-28.1095 258.143,-30.5393 267.719,-35.0707 268.455,-28.1095"/>
</g>
<!-- node_modules/fun&#45;function/src/index -->
<g id="node3" class="node"><title>node_modules/fun&#45;function/src/index</title>
<ellipse fill="none" stroke="#cfffac" cx="481.137" cy="-18" rx="162.471" ry="18"/>
<text text-anchor="middle" x="481.137" y="-14.3" font-family="Arial" font-size="14.00" fill="#cfffac">node_modules/fun&#45;function/src/index</text>
</g>
<!-- src/index&#45;&gt;node_modules/fun&#45;function/src/index -->
<g id="edge2" class="edge"><title>src/index&#45;&gt;node_modules/fun&#45;function/src/index</title>
<path fill="none" stroke="#757575" d="M788.731,-80.6952C734.177,-69.7531 636.893,-50.2405 566.308,-36.0832"/>
<polygon fill="#757575" stroke="#757575" points="566.589,-32.5699 556.096,-34.0349 565.213,-39.4332 566.589,-32.5699"/>
</g>
<!-- node_modules/fun&#45;predicate/src/index -->
<g id="node4" class="node"><title>node_modules/fun&#45;predicate/src/index</title>
<ellipse fill="none" stroke="#cfffac" cx="830.137" cy="-18" rx="168.97" ry="18"/>
<text text-anchor="middle" x="830.137" y="-14.3" font-family="Arial" font-size="14.00" fill="#cfffac">node_modules/fun&#45;predicate/src/index</text>
</g>
<!-- src/index&#45;&gt;node_modules/fun&#45;predicate/src/index -->
<g id="edge3" class="edge"><title>src/index&#45;&gt;node_modules/fun&#45;predicate/src/index</title>
<path fill="none" stroke="#757575" d="M830.137,-71.6966C830.137,-63.9827 830.137,-54.7125 830.137,-46.1124"/>
<polygon fill="#757575" stroke="#757575" points="833.637,-46.1043 830.137,-36.1043 826.637,-46.1044 833.637,-46.1043"/>
</g>
<!-- node_modules/fun&#45;scalar/src/index -->
<g id="node5" class="node"><title>node_modules/fun&#45;scalar/src/index</title>
<ellipse fill="none" stroke="#cfffac" cx="1172.14" cy="-18" rx="154.873" ry="18"/>
<text text-anchor="middle" x="1172.14" y="-14.3" font-family="Arial" font-size="14.00" fill="#cfffac">node_modules/fun&#45;scalar/src/index</text>
</g>
<!-- src/index&#45;&gt;node_modules/fun&#45;scalar/src/index -->
<g id="edge4" class="edge"><title>src/index&#45;&gt;node_modules/fun&#45;scalar/src/index</title>
<path fill="none" stroke="#757575" d="M871.39,-80.5564C925.153,-69.5523 1020.43,-50.0521 1089.36,-35.9431"/>
<polygon fill="#757575" stroke="#757575" points="1090.23,-39.3365 1099.33,-33.9023 1088.83,-32.4786 1090.23,-39.3365"/>
</g>
<!-- node_modules/fun&#45;unfold/src/index -->
<g id="node6" class="node"><title>node_modules/fun&#45;unfold/src/index</title>
<ellipse fill="none" stroke="#cfffac" cx="1500.14" cy="-18" rx="155.173" ry="18"/>
<text text-anchor="middle" x="1500.14" y="-14.3" font-family="Arial" font-size="14.00" fill="#cfffac">node_modules/fun&#45;unfold/src/index</text>
</g>
<!-- src/index&#45;&gt;node_modules/fun&#45;unfold/src/index -->
<g id="edge5" class="edge"><title>src/index&#45;&gt;node_modules/fun&#45;unfold/src/index</title>
<path fill="none" stroke="#757575" d="M875.925,-84.2162C978.185,-73.5323 1227.97,-47.4352 1378.74,-31.6835"/>
<polygon fill="#757575" stroke="#757575" points="1379.39,-35.1347 1388.97,-30.6144 1378.66,-28.1726 1379.39,-35.1347"/>
</g>
</g>
</svg>
